<?xml version="1.0"?>
<svg xmlns="http://www.w3.org/2000/svg" xmlns:xlink="http://www.w3.org/1999/xlink" xmlns:svgjs="http://svgjs.com/svgjs" version="1.1" width="512" height="512" x="0" y="0" viewBox="0 0 64 64" style="enable-background:new 0 0 512 512" xml:space="preserve" class=""><g><g xmlns="http://www.w3.org/2000/svg"><path d="m51 29v-1h5c3.86 0 7-3.14 7-7v-1h-7c-1.958 0-3.728.81-5 2.11v-3.517c1.578-.899 6-3.759 6-7.594 0-4.343-5.709-9.226-6.36-9.768l-.64-.533-.64.534c-.651.542-6.36 5.425-6.36 9.768 0 3.834 4.422 6.694 6 7.594v5.517c-1.272-1.3-3.042-2.11-5-2.11h-7v1c0 3.86 3.14 7 7 7h5v3h-11.426c.53 1.287.915 2.627 1.148 4h15.278c2.209 0 4 1.791 4 4v5c0 2.209-1.791 4-4 4h-2v-3l-8 5 8 5v-3h3c3.866 0 7-3.134 7-7v-7c0-3.866-3.134-7-7-7h-4v-3z" fill="#c77900" data-original="#000000" style="" class=""/><path d="m22.262 15 3.472-11.286-2.332-.583-3.45 4.6-2.412-3.619-3.233.646 3.414 10.242z" fill="#c77900" data-original="#000000" style="" class=""/><path d="m15.612 15-2.542-7.626-1.969.246c-1.068.134-1.903.962-2.07 1.997l5.383 5.383z" fill="#c77900" data-original="#000000" style="" class=""/><path d="m25.586 15 5.383-5.383c-.167-1.034-1.002-1.863-2.07-1.997l-2.19-.274-2.355 7.654z" fill="#c77900" data-original="#000000" style="" class=""/><path d="m30 41c2.518 0 4.835.86 6.691 2.289.199-1.04.309-2.086.309-3.128 0-3.188-.9-6.297-2.602-8.991l-8.949-14.17h-10.898l-8.949 14.17c-1.702 2.694-2.602 5.804-2.602 8.991 0 9.285 7.554 16.839 16.838 16.839h.323c.017 0 .035-.003.051-.003-.769-1.501-1.212-3.197-1.212-4.997 0-6.065 4.935-11 11-11zm2.859-8.517-1.713 1.032-1.258-1.996 1.691-1.068zm-7.58-12.007 5.027 7.96-1.691 1.068-5.027-7.96zm-20.279 19.685.001-.171 2 .018-.001.153c0 .57.038 1.145.113 1.707l-1.983.264c-.086-.65-.13-1.313-.13-1.971zm8.548 13.439c-3.875-1.821-6.778-5.216-7.965-9.315l1.921-.557c1.027 3.547 3.541 6.485 6.895 8.062z" fill="#c77900" data-original="#000000" style="" class=""/><path d="m30 43c-4.962 0-9 4.037-9 9s4.038 9 9 9 9-4.037 9-9-4.038-9-9-9zm-1 8h2c1.654 0 3 1.346 3 3v3h-3v2h-2v-2c-1.654 0-3-1.346-3-3h2c0 .552.449 1 1 1h3v-1c0-.552-.449-1-1-1h-2c-1.654 0-3-1.346-3-3v-3h3v-2h2v2c1.654 0 3 1.346 3 3h-2c0-.552-.449-1-1-1h-3v1c0 .552.449 1 1 1z" fill="#c77900" data-original="#000000" style="" class=""/></g></g></svg>
