<?xml version="1.0"?>
<svg xmlns="http://www.w3.org/2000/svg" xmlns:xlink="http://www.w3.org/1999/xlink" xmlns:svgjs="http://svgjs.com/svgjs" version="1.1" width="512" height="512" x="0" y="0" viewBox="0 0 496 496" style="enable-background:new 0 0 512 512" xml:space="preserve" class=""><g>
<g xmlns="http://www.w3.org/2000/svg">
	<polygon style="" points="280,408 264,432 272,488 224,488 232,432 216,408 248,376  " fill="#ffa64d" data-original="#ffa64d" class=""/>
	<path style="" d="M344,160v-48h-28.184c-0.848-2.392-1.816-4.712-2.896-6.976l19.936-19.936l-33.944-33.944   L278.976,71.08c-2.264-1.08-4.584-2.048-6.976-2.896V40h-48v28.184c-2.392,0.848-4.712,1.816-6.976,2.896l-19.936-19.936   l-33.944,33.944l19.936,19.936c-1.08,2.264-2.048,4.592-2.896,6.976H152v48h28.184c0.848,2.392,1.816,4.712,2.896,6.976   l-19.936,19.936l33.944,33.944l19.936-19.936c2.264,1.08,4.592,2.048,6.976,2.896V232h48v-28.184   c2.392-0.848,4.712-1.816,6.976-2.896l19.936,19.936l33.944-33.944l-19.936-19.936c1.08-2.264,2.048-4.592,2.896-6.976H344z" fill="#ffa64d" data-original="#ffa64d" class=""/>
</g>
<g xmlns="http://www.w3.org/2000/svg">
	<path style="" d="M432,0H64C41.944,0,24,17.944,24,40v240c0,22.056,17.944,40,40,40h128v17.136l-41.304,6.352   c-36.968,5.688-68.048,32.424-79.2,68.12L45.12,496h405.76l-26.376-84.392c-11.152-35.696-42.24-62.432-79.2-68.12L304,337.136V320   h128c22.056,0,40-17.944,40-40V40C472,17.944,454.056,0,432,0z M301.232,352.896l10.12,1.56l-12.264,61.32l-33.984-33.984   C284.912,376.744,296.24,363.56,301.232,352.896z M230.896,381.792l-33.984,33.984l-12.264-61.32l10.12-1.56   C199.76,363.56,211.088,376.744,230.896,381.792z M409.232,416.376L429.12,480h-62.056l-7.128-56.992l-15.872,1.984L350.936,480   H145.064l6.872-55.008l-15.872-1.984L128.936,480H66.88l19.88-63.624c9.336-29.896,35.392-52.304,66.36-57.072l15.696-2.416   l18.264,91.336L248,387.312l60.912,60.912l18.264-91.336l15.696,2.416C373.84,364.072,399.896,386.48,409.232,416.376z    M288,342.824c-1.368,4.16-9.768,25.176-40,25.176c-30.224,0-38.608-20.92-40-25.176V320h80V342.824z M456,256h-16v16h16v8   c0,13.232-10.768,24-24,24H64c-13.232,0-24-10.768-24-24v-8h384v-16H40V40c0-13.232,10.768-24,24-24h368c13.232,0,24,10.768,24,24   V256z" fill="#ff500c" data-original="#333333" class=""/>
	<path style="" d="M248,96c-22.056,0-40,17.944-40,40s17.944,40,40,40s40-17.944,40-40S270.056,96,248,96z M248,160   c-13.232,0-24-10.768-24-24s10.768-24,24-24s24,10.768,24,24S261.232,160,248,160z" fill="#ff500c" data-original="#333333" class=""/>
	<rect x="368" y="128" style="" width="16" height="16" fill="#ff500c" data-original="#333333" class=""/>
	<rect x="400" y="128" style="" width="16" height="16" fill="#ff500c" data-original="#333333" class=""/>
	<rect x="80" y="128" style="" width="16" height="16" fill="#ff500c" data-original="#333333" class=""/>
	<rect x="112" y="128" style="" width="16" height="16" fill="#ff500c" data-original="#333333" class=""/>
</g>
<g xmlns="http://www.w3.org/2000/svg">
</g>
<g xmlns="http://www.w3.org/2000/svg">
</g>
<g xmlns="http://www.w3.org/2000/svg">
</g>
<g xmlns="http://www.w3.org/2000/svg">
</g>
<g xmlns="http://www.w3.org/2000/svg">
</g>
<g xmlns="http://www.w3.org/2000/svg">
</g>
<g xmlns="http://www.w3.org/2000/svg">
</g>
<g xmlns="http://www.w3.org/2000/svg">
</g>
<g xmlns="http://www.w3.org/2000/svg">
</g>
<g xmlns="http://www.w3.org/2000/svg">
</g>
<g xmlns="http://www.w3.org/2000/svg">
</g>
<g xmlns="http://www.w3.org/2000/svg">
</g>
<g xmlns="http://www.w3.org/2000/svg">
</g>
<g xmlns="http://www.w3.org/2000/svg">
</g>
<g xmlns="http://www.w3.org/2000/svg">
</g>
</g></svg>
